<svg id="Layer_1" data-name="Layer 1" xmlns="http://www.w3.org/2000/svg" viewBox="0 0 350.81 327.25"><title>air-jordan-seeklogo</title><path d="M327.26,228.49c-.13-.71-.22-1.45-.28-2.19a18.79,18.79,0,1,1,20.07,17.43,18.1,18.1,0,0,1-1.94,0,1.94,1.94,0,0,0-1,.47c-1.07,1.66,2.71,1.35.14,8.61a5.92,5.92,0,0,1-.3,1.6c-.2,2.78-1.28,11-1.43,15.43.55.64.7.95.64,2.5a104.2,104.2,0,0,1-1.49,10.48,5.6,5.6,0,0,1-2.73,4c-1.3,5.82-1.64,10.65-5,17.72-.3,5.36-.68,6.82-1.81,9.44-.12,7.89.42,9.07-4.9,21.57-1.38,5.85-.07,9.89,1.38,16,1.48,6.24,5.61,8.85,6.22,15.24,1.44,15.06,1.08,25.31-2.15,37.12l2.82,6.67c3.5,1.61,12.18,6,7.37,12.94,6.77,3.57,17,7.35,25.47,14.58a92.93,92.93,0,0,1,10.21,9.53c6.13,1,5.48,1.45,10,4.24,13.37,8.2,34.81,24.46,47.23,36,2.14,1.25,3,2.15,4.74,3.05.27.52.35.64.29.78-.6,1.5-.58,1.55-1.11,2.74a30,30,0,0,0,2.67,2.09c.69.22.69-.12,1.89-.41,1.56,1.46,3.49,2.63,4.19,2.56,2.11-.53,1.75-.1,3.54-2.09.64-.67,1.72,0,1.72,0a16.86,16.86,0,0,1,4-3.49,12,12,0,0,1,4.46-1c1,0,.8,1,.71,1.34-1.1.57-3.45,1.2-4.77,2.17a39.3,39.3,0,0,0-5.12,7c5.78-.79,9.33.64,14.15.09,2.62-.15,4.56,0,7.32-2a31.42,31.42,0,0,1,5-2.89,6.29,6.29,0,0,1,6.52,1c1.44,1.62,2.3,1.63.12,3.91-.79.89-1.93,1.88-3.38,3.31a113.54,113.54,0,0,1-9.54,8.66,58.14,58.14,0,0,1-10.24,6.5c-6.43,4.62-4.91,3.41-10,8-.64.57-2.33,1.59-3.16,2.14-2,1.31-2.61.22-3.91-2.18a31.79,31.79,0,0,1-1.58-2.81c-1.07-2.09-1.88-4.48-1.55-4.44-1.2-.15-6.6-6.48-6.61-7.84-1.15-.26-6-5-6.19-5.87l-4.31-3.46c-4.93,1-6.07-2-19.09-11.28-1.49,0-3.79-.83-7.08-3.27-5.88-4.71-20-15.36-22.37-16.58-2.57-1.31-5.64-2.54-7.52-4.1-2.82-.52-4.37-.81-5.78-1.2a35,35,0,0,0-6.4-1.4c-5.94-.73-12.1-3.19-18-6.13-2.78-1.31-5.19-2-7.58-3-5.37-2.27-10-4.31-13.52-5.13a44.15,44.15,0,0,1-11.21-4,15.54,15.54,0,0,0-2.63-1.36,5.75,5.75,0,0,0-3.72.56c-4.35,2.27-8.42,4.22-12.18,6.25-3.5,1.87-6.72,3.81-10.13,5.78-3.08,1.78-6.64,3.45-10.3,5.2,0,0-10.43,5.23-16.12,7.26a190.77,190.77,0,0,1-21.21,14.47c-3.06,1.45-9,5.21-11.73,6.05-1.56,1.26-7.12,5.23-11.47,8.5-3.37,2.52-5.91,4.64-5.91,4.64-2,1.75-1.82,2.58-5.54,1-1,.85-1.83,1.38-2.49,1.87-2.68,1.94-2.91,1.47-3.89,1.42-1.87,1.62-2.11.78-3.74,2.65-1.08,1.66,0,1.26-2.24,2.07-.48.18-.71.76-1.08,1.08-1.82,1.5-1.83,5.74-6.19,6-2.52,1.8-1.88,4-3.81,3.89.12,1.87-3.41,4.59-4,4.59-5.56,1.92-6-2.18-12.63.88-.86.39-2.13,1.48-3.8,1.8a11.57,11.57,0,0,1-8.65-1.7c-3.41-2.63-6.54-7.7-6.54-7.7-1.09-2.56-.46-4.17,2.92-6.59,1.41-.9,1.67-1.57,4-1.73,1.18-.45.86.23,3-.52,1.22-.44,1.22-.12,3.67-.33a10.46,10.46,0,0,1,2.41-.86c1.94-.64,3.83-1.35,3.83-1.35s.49-.5,2.35-.32c1.58-.65,3.2-1.6,4-1.9-.21-2.5.06-2.38,1.22-3.39,1.44-1.24,1.7-1,2.77-.27.46-.26.67-.35.62-.73-.17-1.3-1.29-1.91-1-4.78-.5-1.15-1.23-2.56-1.07-3.42s.47-1.37,1-1.66.79.11,1.1.47a8.87,8.87,0,0,1,1,2.62c.2,2.22.88,5.09,3.07,3.47,1.3-1.31,1.55-4.8,4.18-4.05l1.88,1.63a11.79,11.79,0,0,1,2.63-2.1s-1.5-1.51-.19-2.69a28.57,28.57,0,0,0,3.91-3.5,107,107,0,0,1,13.69-13.1,129.33,129.33,0,0,1,32.57-19.2c2.68-3.41,5.29-5.67,11.25-6.24,7.08-12,20.64-22.64,23.75-24.34,2.54-4.59,3.64-4.1,6.95-5,2.62-2.1,3.22-2.1,4.4-4.3,1.14-4.54-2.64-16.66,7-17.27a46.51,46.51,0,0,1,3.82-4.94,41.15,41.15,0,0,1-2.6-9.74c-.08-.32-3.83-3-2.76-6.41a51.08,51.08,0,0,1-5.51-8.39,7.66,7.66,0,0,1-1.25-.22c-.48-.08-1.09-.05-1.77-.11-1.5,3.88-3.13,4.16-5.8,5-4.77,10.15-6.45,14.45-19.93,22.85a34,34,0,0,0-7,12.57,9.53,9.53,0,0,0-.11,6.23c-.7,2.2-.52,2.42-.52,2.42a3.46,3.46,0,0,0,2,2.16c1.62.43,3.24.36,3.14,2.17-.21,2.25-3.18,1.88-4.58,1.63-5.39-.85-3.69-4.37-7.14-3.2-2.64,1.73-3.63,6.83-7.94,6.17-.57-.37-.4-1.49,0-2.3.6-1.26,1.68-2.3,1-2.77-2.8.88-8.43,2.75-8.43,2.75-2.64.72-5.53-.6-2.93-2.34a25,25,0,0,0,5.07-2.42s1.09-1.49-1-.75a20.4,20.4,0,0,1-8.12,1.07s-5-.66-5.69-1.06-1.25-1.95.33-1.94a52.66,52.66,0,0,0,10.87-1.61c1.87-.73,5.43-2.83,7.43-3.82,0,0,2.16-3.16,3.35-3.78,2-2.29,3.67-3.64,5.43-6,1.72-3.55,3.5-9.17,9.19-17.87a83,83,0,0,1,10-12.86,21.41,21.41,0,0,1,6.43-11.44,86.29,86.29,0,0,1,4.75-9.11c.68-1.16,1.34-2.18,2-3.29,1.67-2.61,3.41-7.46,9.89-8.23a23.69,23.69,0,0,0,3.83-3.5c1.66-1.42,1.28-3.62,2.63-5.18-2.06-2-7.34-5.79-7.85-11.05a16.44,16.44,0,0,1,4.82-13.57c3.74-3.74,7.68-5.61,12.47-5.33,6,.89,7.12,2.87,9,4.84s2.51.66,3.28,2.84c5,1.33,4.74.75,4.7,4.44.77,1,2.06,2,2.05,4.16,1.68-3.5,2-4.14,6.52-8,1.07-3.13,1.79-6.21,2.73-9.34.88-2.9,2-5.88,2.82-8.12-.9-6.32.94-7.37,3.4-12.92-.43-.76-.34-1-.16-2.23,1-3.66,2.45-8.51,3.34-11.68a1.82,1.82,0,0,1,1.6-1.35c1.12-4,2.81-11.45,3.09-13,1.16-4.19.41-5.53-.47-7.89-.29-.77-.16-1.87-.65-2.72-1.4-2.45-2.91-5.62-3.93-7.88a54.71,54.71,0,0,1-1.72-6.88c-.89-2.78-.11,0-.11,0" transform="translate(-136.69 -206.19)"/></svg>