<svg id="Layer_2" data-name="Layer 2" xmlns="http://www.w3.org/2000/svg" viewBox="0 0 92.3 44.7"><defs><style>.cls-1{fill:#231f20;fill-rule:evenodd;}</style></defs><title>new-balance</title><path class="cls-1" d="M266.89,633.9a5.39,5.39,0,0,0,5-4.46,3.53,3.53,0,0,0-3.1-3.89c-1.26,0-2.49,0-3.81,0-1.52,2.66-3,5.4-4.29,8.26C263.13,633.85,264.67,633.84,266.89,633.9ZM269,616.58c1.32-2.81,2.84-5.42,4.21-8.18,1.8,0,2.47-.06,4,0a3.21,3.21,0,0,1,3,2.78,4.46,4.46,0,0,1-1.34,3.73C276.68,617.15,272.51,616.78,269,616.58Zm-41.08-16.69h17.91l1.46,5.48L225.41,604Zm22.07,15,4.51-7.1,13.68-1.13-12.64-.72,3.47-6.09h22.62c13.68,0,14.06,5.87,13.25,9.95a13.27,13.27,0,0,1-6,9.08,16.39,16.39,0,0,1-6.26,2.3c2.43,1.72,4.7,6.22,4.54,9s-.42,5.74-5.64,9.66-12.8,4.67-12.8,4.67H237.21l-1.75-6,15.23-1.1-15.82-1.14-2.07-7.09L229.17,636l-20.61-1.41,2.64-4.77,45.39-3-42.27-2.54,2.25-4.14,45.79-3-42.66-2.73,2.69-4.76L247.87,608Zm-22.31,23.84-3.06,5.69H202.78l2.25-4.18Z" transform="translate(-202.78 -599.83)"/></svg>