<svg id="Layer_1" data-name="Layer 1" xmlns="http://www.w3.org/2000/svg" viewBox="0 0 180.84 140.81"><defs><style>.cls-1{fill:#1d1d1b;fill-rule:evenodd;}</style></defs><title>puma-se-seeklogo</title><path class="cls-1" d="M325.68,231.2c-1.16.17-2.28,4.45-4.52,6.68-1.65,1.6-3.69,1.51-4.79,3.5-.41.74-.27,2-.74,3.23-.92,2.43-4.15,2.64-4.15,5.3,0,2.87,2.69,3.41,5,5.45,1.83,1.63,2,2.76,4.22,3.56,1.89.64,4.7-1.46,7.23-.71,2.08.62,4.07,1.07,4.54,3.2.41,2,0,5-2.55,4.66a27.82,27.82,0,0,0-9.05-.85c-5.47.62-11.69,2.4-12.3,8.49-.34,3.4,3.87,7.41,7.93,6.59,2.81-.55,1.48-3.86,3-5.47,2-2.06,13.37,7.19,23.93,7.19,4.44,0,7.75-1.12,11-4.56.3-.26.68-.83,1.15-.86a4,4,0,0,1,1.49.66c8.5,6.84,14.94,20.55,46.2,20.71,4.4,0,9.4,2.13,13.49,5.86,3.65,3.37,5.78,8.62,7.86,13.94,3.13,8,8.73,15.76,17.23,24.4.46.47,7.46,5.91,8,6.31a3.36,3.36,0,0,1,.43,2c-.21,5.19-1,20.26,10.28,20.95,2.74.14,2-1.8,2-3.12,0-2.63-.48-5.24.9-7.93,1.89-3.69-4-5.39-3.84-13.39.12-6-4.89-4.94-7.42-9.48-1.47-2.64-2.77-4-2.67-7.25.57-18.11-3.86-30-6.06-32.93-1.73-2.21-3.15-3.08-1.57-4.1,9.37-6.2,11.5-12,11.5-12,5-11.72,9.47-22.43,15.66-27.14a45.25,45.25,0,0,1,6.4-4.3c5.77-2.72,8.81-4.37,10.49-6,2.64-2.58,4.74-8,2.2-11.24-3.16-4-8.63-.84-11,.6-17.24,10.23-19.78,28.28-25.76,38.64-4.76,8.29-12.51,14.37-19.44,14.87a34.45,34.45,0,0,1-16.36-3.11,83,83,0,0,1-22.73-15c-3.64-2.81-31.91-30.57-54.81-31.7,0,0-2.85-5.7-3.56-5.79-1.68-.22-3.39,3.4-4.62,3.82s-3.1-3.91-4.27-3.72Z" transform="translate(-308.58 -230.59)"/></svg>